<?xml version="1.0" encoding="UTF-8"?>
<svg id="Layer_1" xmlns="http://www.w3.org/2000/svg" version="1.1" viewBox="0 0 800 800">
  <!-- Generator: Adobe Illustrator 30.4.0, SVG Export Plug-In . SVG Version: 2.1.4 Build 226)  -->
  <defs>
    <style>
      .st0 {
        fill: #10f5a3;
      }
    </style>
  </defs>
  <path class="st0" d="M595.85,585.5c-27.28.06-53.45-10.78-72.7-30.1l-105-105c-7.72-7.33-19.83-7.33-27.55,0l-105.4,105.4c-19.24,19.33-45.42,30.17-72.7,30.1h-20.7l133,133c41.5,41.5,108.85,41.5,150.35,0l133.35-133.4h-12.65,0ZM212.5,214.1c27.5,0,53.3,10.7,72.7,30.1l105.4,105.4c7.61,7.62,19.96,7.63,27.58.02,0,0,.02-.02.02-.02l105-105c19.23-19.32,45.39-30.16,72.65-30.1h12.65l-133.35-133.35c-41.53-41.5-108.82-41.5-150.35,0l-133,133h20.7v-.05Z"/>
  <path class="st0" d="M718.85,324.8l-80.6-80.6c-1.81.74-3.74,1.13-5.7,1.15h-36.65c-18.95,0-37.5,7.7-50.85,21.1l-105,105c-19.57,19.68-51.39,19.76-71.06.19-.06-.06-.12-.12-.19-.19l-105.4-105.45c-13.52-13.47-31.82-21.05-50.9-21.1h-45c-1.87-.01-3.71-.37-5.45-1.05l-80.9,80.95c-41.5,41.5-41.5,108.85,0,150.4l80.9,80.9c1.72-.69,3.55-1.06,5.4-1.1h45.05c19,0,37.5-7.65,50.9-21.05l105.35-105.45c19.97-19.01,51.33-19.01,71.3,0l105,105c13.35,13.4,31.9,21.05,50.85,21.05h36.65c2,0,3.95.5,5.7,1.2l80.6-80.6c41.5-41.5,41.5-108.9,0-150.4v.05Z"/>
</svg>